<svg version="1.1" id="레이어_1" xmlns="http://www.w3.org/2000/svg" x="0" y="0" viewBox="0 0 399.6 106.7" xml:space="preserve"><style>.st0{fill:#fdfefe}.st1{fill:#efad39}</style><path class="st0" d="M128 86.8c-2 1.4-4.3 2.6-7.1 3.5-2.8 1-6.2 1.5-10.3 1.5-2.8 0-5.4-.4-7.8-1.2-2.4-.8-4.5-2-6.3-3.7-1.8-1.7-3.2-3.9-4.2-6.5-1-2.7-1.5-5.8-1.5-9.4v-5.1c0-3.4.5-6.4 1.5-9 1-2.6 2.3-4.8 4.1-6.5 1.7-1.7 3.8-3.1 6.2-3.9 2.4-.9 5-1.3 7.8-1.3 5.8 0 10.4 1.8 13.8 5.3 3.4 3.5 5.1 8.6 5.1 15v6.1H98.6v.3c0 4.3 1.1 7.6 3.4 9.8 2.3 2.2 5.2 3.4 8.9 3.4 3 0 5.5-.4 7.7-1.1 2.1-.7 4.1-1.7 6.1-3l3.3 5.8zm-17.9-34.9c-1.7 0-3.2.3-4.6.9-1.4.6-2.6 1.4-3.6 2.4s-1.8 2.3-2.4 3.7c-.6 1.5-.9 3.1-.9 4.8v1.2h22.7v-1.5c0-3.5-1-6.2-3-8.3-2-2.2-4.7-3.2-8.2-3.2zM151.6 83.6l11.8-37.7h8.4l-15.3 45.3h-10.3l-15.5-45.3h8.7l11.9 37.7h.3zM211.3 86.8c-2 1.4-4.4 2.6-7.1 3.5-2.8 1-6.2 1.5-10.4 1.5-2.8 0-5.4-.4-7.8-1.2-2.4-.8-4.5-2-6.3-3.7-1.8-1.7-3.2-3.9-4.2-6.5-1-2.7-1.5-5.8-1.5-9.4v-5.1c0-3.4.5-6.4 1.5-9 1-2.6 2.3-4.8 4.1-6.5 1.7-1.7 3.8-3.1 6.2-3.9 2.4-.9 5-1.3 7.8-1.3 5.8 0 10.4 1.8 13.8 5.3 3.4 3.5 5.1 8.6 5.1 15v6.1H182v.3c0 4.3 1.1 7.6 3.4 9.8 2.3 2.2 5.2 3.4 8.9 3.4 3 0 5.5-.4 7.7-1.1 2.1-.7 4.2-1.7 6.1-3l3.2 5.8zm-17.8-34.9c-1.7 0-3.2.3-4.6.9-1.4.6-2.6 1.4-3.6 2.4s-1.8 2.3-2.4 3.7c-.6 1.5-.9 3.1-.9 4.8v1.2h22.7v-1.5c0-3.5-1-6.2-3-8.3-2-2.2-4.8-3.2-8.2-3.2zM244.6 53.7c-.8-.3-1.6-.6-2.5-.8-.9-.2-1.9-.3-3-.3-1.5 0-2.9.3-4.3.9-1.4.6-2.5 1.4-3.5 2.5s-1.8 2.4-2.4 3.8c-.6 1.5-.9 3.1-.9 4.9v26.4h-8.1V45.9h7.9v7.2h.1c1.3-2.5 3-4.5 5.2-5.9 2.1-1.4 4.8-2.1 8.1-2.1 2 0 3.9.3 5.9.9l-2.5 7.7z"/><path class="st1" d="M266 84.8c3 0 5.3-.5 6.9-1.6 1.7-1.1 2.5-2.5 2.5-4.3v-.7c0-.9-.1-1.7-.4-2.4-.3-.7-.8-1.2-1.6-1.7s-1.8-1-3.1-1.4c-1.3-.4-3.1-.8-5.2-1.3-2.5-.5-4.7-1.1-6.6-1.8-1.9-.7-3.6-1.6-4.9-2.6-1.3-1-2.3-2.3-3-3.7-.7-1.4-1-3.1-1-5.1v-1c0-1.6.3-3.1 1-4.6.7-1.5 1.7-2.8 3.1-3.9 1.4-1.1 3.2-2 5.3-2.7 2.1-.7 4.7-1 7.6-1 3.1 0 6 .4 8.7 1 2.7.7 5.1 1.9 7.4 3.5l-3.6 6.1c-1.5-1.1-3.3-2-5.3-2.7-2.1-.7-4.3-1-6.6-1-3.4 0-5.8.5-7.2 1.5-1.5 1-2.2 2.3-2.2 3.9v.7c0 1.8.8 3.1 2.2 3.9 1.5.9 4 1.6 7.5 2.3 2.7.5 5.1 1.1 7.2 1.8 2 .7 3.7 1.6 5 2.7 1.3 1.1 2.3 2.4 3 3.9.7 1.5 1 3.3 1 5.4v1.1c0 1.8-.4 3.4-1.2 5-.8 1.5-1.9 2.9-3.4 4s-3.3 2-5.4 2.7c-2.1.7-4.5 1-7.2 1-3.8 0-7.3-.5-10.3-1.5-3.1-1-5.7-2.3-7.9-4L252 80c2 1.4 4.2 2.5 6.5 3.4 2.2 1 4.7 1.4 7.5 1.4zM303.2 91.8c-4.6 0-8.2-1.1-10.9-3.4-2.7-2.3-4-5.4-4-9.4v-2.2c0-3.9 1.3-7 3.9-9.4 2.6-2.4 6.8-3.6 12.6-3.6h11.5v-2.6c0-3-.7-5.3-2.2-6.7-1.5-1.5-3.8-2.2-7.2-2.2-2.6 0-5 .4-6.9 1.2-2 .8-4 1.9-6.1 3.3l-4-6c2.2-1.5 4.7-2.9 7.5-4s6-1.7 9.6-1.7c2.5 0 4.9.3 7 1 2.1.6 3.9 1.6 5.4 2.8 1.5 1.2 2.7 2.8 3.6 4.6.9 1.8 1.3 3.8 1.3 6.1v31.7h-7.7v-5.5h-.1c-.4.8-1 1.6-1.8 2.3-.7.7-1.6 1.3-2.4 1.8-1.2.7-2.5 1.2-3.9 1.5-1.5.2-3.2.4-5.2.4zm13.1-21.3H305c-3.1 0-5.4.6-6.7 1.8-1.4 1.2-2 2.9-2 5.1v1.2c0 2.2.8 3.8 2.3 4.8 1.5 1 3.4 1.5 5.5 1.5 2 0 3.7-.2 5.2-.7 1.5-.5 2.8-1.2 4-2.1 1.1-.8 1.9-1.8 2.4-2.9.5-1.1.7-2.5.7-4.2v-4.5zM337.2 52.7h-7.4v-7h7.4v-4.5c0-4.6 1.1-7.9 3.4-10.1 2.3-2.2 5.6-3.2 9.9-3.2 1.4 0 2.9.1 4.4.3 1.5.2 2.7.5 3.7.8l-1.2 6.6c-2-.5-4-.8-6.1-.8-.8 0-1.5.1-2.2.2-.7.2-1.3.5-1.9.9-.5.5-1 1.1-1.3 2-.3.9-.5 2-.5 3.5v4.1h11.9v7h-11.9v38.4h-8.1V52.7zM397.3 86.8c-2 1.4-4.4 2.6-7.1 3.5-2.8 1-6.2 1.5-10.4 1.5-2.8 0-5.4-.4-7.8-1.2-2.4-.8-4.5-2-6.3-3.7-1.8-1.7-3.2-3.9-4.2-6.5-1-2.7-1.5-5.8-1.5-9.4v-5.1c0-3.4.5-6.4 1.4-9 1-2.6 2.3-4.8 4.1-6.5 1.7-1.7 3.8-3.1 6.2-3.9 2.4-.9 5-1.3 7.8-1.3 5.8 0 10.4 1.8 13.8 5.3 3.4 3.5 5.1 8.6 5.1 15v6.1h-30.5v.3c0 4.3 1.1 7.6 3.4 9.8 2.3 2.2 5.2 3.4 8.9 3.4 3 0 5.5-.4 7.7-1.1 2.1-.7 4.1-1.7 6.1-3l3.3 5.8zm-17.9-34.9c-1.7 0-3.2.3-4.6.9-1.4.6-2.6 1.4-3.6 2.4s-1.8 2.3-2.4 3.7c-.6 1.5-.9 3.1-.9 4.8v1.2h22.7v-1.5c0-3.5-1-6.2-3-8.3-2-2.2-4.7-3.2-8.2-3.2zM56.1 70.4c0 10.3-8.4 18.7-18.7 18.7-10.3 0-18.7-8.4-18.7-18.7 0-10.3 8.4-18.7 18.7-18.7 10.4 0 18.7 8.4 18.7 18.7z"/><path class="st0" d="M76.6 81.4l-4.8-8.6c-.6-1.1-1.8-1.8-3-1.8-.6 0-1.2.2-1.7.4l-8.7 4.8c-.8.5-1.4 1.2-1.7 2.1-.3.9-.2 1.8.3 2.6.6 1.1 1.8 1.8 3 1.8.6 0 1.2-.1 1.7-.4l.9-.5c-2.4 5.4-6.6 9.9-11.8 12.8-4.1 2.3-8.7 3.5-13.4 3.5-10.1 0-19.4-5.5-24.3-14.2-3.6-6.5-4.4-13.9-2.4-21 2-7.1 6.7-13 13.2-16.6 4.1-2.3 8.7-3.5 13.4-3.5 8.9 0 17.2 4.2 22.4 11.3l-24 13.3c-1.7.9-2.3 3.1-1.4 4.7.6 1.1 1.8 1.8 3 1.8.6 0 1.2-.2 1.7-.4l27.3-15.1c.8-.5 1.4-1.2 1.7-2.1.3-.9.1-1.8-.3-2.7-1.1-2-2.5-4-4-5.8V27.9c0-14.5-11.8-26.3-26.3-26.3S11.1 13.4 11.1 27.9v19.9c-3.3 3.8-5.6 8.2-7 13-2.6 8.9-1.5 18.3 3 26.4 6.1 11 17.7 17.8 30.4 17.8 5.8 0 11.6-1.5 16.7-4.3 7.1-3.9 12.5-10.1 15.4-17.5l.9 1.6c.6 1.1 1.8 1.8 3.1 1.8.6 0 1.2-.2 1.7-.4 1.6-1 2.2-3.1 1.3-4.8zM37.4 8.6c10.7 0 19.3 8.7 19.3 19.3v13.7c-5.7-3.8-12.5-5.9-19.4-5.9-5.8 0-11.6 1.5-16.7 4.3-.9.5-1.7 1-2.5 1.6V27.9c0-10.6 8.7-19.3 19.3-19.3z"/></svg>